<svg width="24" height="24" viewBox="0 0 24 24" fill="none" xmlns="http://www.w3.org/2000/svg">
<g clip-path="url(#clip0_83_4)">
<path d="M22.1021 2.66602H7.10205C6.41205 2.66602 5.87205 3.01602 5.51205 3.54602L0.102051 11.666L5.51205 19.776C5.87205 20.306 6.41205 20.666 7.10205 20.666H22.1021C22.6325 20.666 23.1412 20.4553 23.5163 20.0802C23.8913 19.7052 24.1021 19.1964 24.1021 18.666V4.66602C24.1021 4.13558 23.8913 3.62687 23.5163 3.2518C23.1412 2.87673 22.6325 2.66602 22.1021 2.66602ZM19.1021 15.256L17.6921 16.666L14.1021 13.076L10.5121 16.666L9.10205 15.256L12.6921 11.666L9.10205 8.07602L10.5121 6.66602L14.1021 10.256L17.6921 6.66602L19.1021 8.07602L15.5121 11.666" fill="black"/>
</g>
<defs>
<clipPath id="clip0_83_4">
<rect width="24" height="24" fill="white"/>
</clipPath>
</defs>
</svg>
